# xmcd
#
# Track frame offsets:
#	150
#	18001
#	33116
#	46796
#	65283
#	83136
#	99709
#	119747
#
# Disc length: 1829 seconds
#
# Revision: 1
# Processed by: cddbd v1.5.2PL0 Copyright (c) Steve Scherf et al.
# Submitted via: audiograbber 1.83.01
#
DISCID=59072308
DTITLE=Don Murdock - Don't Call Me a Hero
DYEAR=2013
DGENRE=Country
TTITLE0=Train Song
TTITLE1=Look Into My Eyes
TTITLE2=I Love You Still
TTITLE3=Don't Call Me a Hero
TTITLE4=There's a Place I Like to Go
TTITLE5=He Died for Love
TTITLE6=Train Song [ext. version]
TTITLE7=Don't Call Me a Hero [alt. version]
EXTD=
EXTT0=
EXTT1=
EXTT2=
EXTT3=
EXTT4=
EXTT5=
EXTT6=
EXTT7=
PLAYORDER=
